<svg width="680" height="500" viewBox="0 0 680 500" xmlns="http://www.w3.org/2000/svg">
<rect width="680" height="500" fill="#ffffff"/>
<defs>
<marker id="arrow" viewBox="0 0 10 10" refX="8" refY="5" markerWidth="6" markerHeight="6" orient="auto-start-reverse"><path d="M2 1L8 5L2 9" fill="none" stroke="#5f5e5a" stroke-width="1.5" stroke-linecap="round" stroke-linejoin="round"/></marker>
</defs>

<text x="175" y="50" text-anchor="middle" font-family="Arial, sans-serif" font-size="16" font-weight="600" fill="#2c2c2a">Arquitetura atual</text>
<text x="520" y="50" text-anchor="middle" font-family="Arial, sans-serif" font-size="16" font-weight="600" fill="#2c2c2a">Arquitetura alvo</text>

<g>
<rect x="70" y="90" width="210" height="44" rx="8" fill="#F1EFE8" stroke="#5F5E5A" stroke-width="1"/>
<text x="175" y="117" text-anchor="middle" font-family="Arial, sans-serif" font-size="15" font-weight="600" fill="#2C2C2A">Cliente</text>
</g>
<line x1="175" y1="134" x2="175" y2="170" stroke="#5f5e5a" stroke-width="1.5" marker-end="url(#arrow)"/>

<g>
<rect x="70" y="170" width="210" height="44" rx="8" fill="#F1EFE8" stroke="#5F5E5A" stroke-width="1"/>
<text x="175" y="197" text-anchor="middle" font-family="Arial, sans-serif" font-size="15" font-weight="600" fill="#2C2C2A">API</text>
</g>
<line x1="175" y1="214" x2="175" y2="250" stroke="#5f5e5a" stroke-width="1.5" marker-end="url(#arrow)"/>

<g>
<rect x="70" y="250" width="210" height="44" rx="8" fill="#F1EFE8" stroke="#5F5E5A" stroke-width="1"/>
<text x="175" y="277" text-anchor="middle" font-family="Arial, sans-serif" font-size="15" font-weight="600" fill="#2C2C2A">Controller</text>
</g>
<line x1="175" y1="294" x2="175" y2="330" stroke="#5f5e5a" stroke-width="1.5" marker-end="url(#arrow)"/>

<g>
<rect x="70" y="330" width="210" height="44" rx="8" fill="#F1EFE8" stroke="#5F5E5A" stroke-width="1"/>
<text x="175" y="357" text-anchor="middle" font-family="Arial, sans-serif" font-size="14" font-weight="600" fill="#2C2C2A">PostgreSQL / MongoDB</text>
</g>
<line x1="175" y1="374" x2="175" y2="410" stroke="#5f5e5a" stroke-width="1.5" marker-end="url(#arrow)"/>

<g>
<rect x="70" y="410" width="210" height="44" rx="8" fill="#F1EFE8" stroke="#5F5E5A" stroke-width="1"/>
<text x="175" y="437" text-anchor="middle" font-family="Arial, sans-serif" font-size="15" font-weight="600" fill="#2C2C2A">Resposta</text>
</g>

<g>
<rect x="430" y="90" width="180" height="44" rx="8" fill="#E1F5EE" stroke="#0F6E56" stroke-width="1"/>
<text x="520" y="117" text-anchor="middle" font-family="Arial, sans-serif" font-size="15" font-weight="600" fill="#085041">Controller</text>
</g>
<line x1="520" y1="134" x2="520" y2="170" stroke="#0f6e56" stroke-width="1.5" marker-end="url(#arrow)"/>

<g>
<rect x="430" y="170" width="180" height="44" rx="8" fill="#E1F5EE" stroke="#0F6E56" stroke-width="1"/>
<text x="520" y="197" text-anchor="middle" font-family="Arial, sans-serif" font-size="15" font-weight="600" fill="#085041">EmissaoService</text>
</g>
<line x1="520" y1="214" x2="520" y2="250" stroke="#0f6e56" stroke-width="1.5" marker-end="url(#arrow)"/>

<g>
<rect x="430" y="250" width="180" height="44" rx="8" fill="#E1F5EE" stroke="#0F6E56" stroke-width="1"/>
<text x="520" y="277" text-anchor="middle" font-family="Arial, sans-serif" font-size="15" font-weight="600" fill="#085041">ClienteModel</text>
</g>
<line x1="520" y1="294" x2="520" y2="330" stroke="#0f6e56" stroke-width="1.5" marker-end="url(#arrow)"/>

<g>
<rect x="430" y="330" width="180" height="44" rx="8" fill="#E1F5EE" stroke="#0F6E56" stroke-width="1"/>
<text x="520" y="357" text-anchor="middle" font-family="Arial, sans-serif" font-size="15" font-weight="600" fill="#085041">EmissaoModel</text>
</g>
</svg>
